<?xml version="1.0" encoding="UTF-8"?>
<!DOCTYPE svg PUBLIC "-//W3C//DTD SVG 1.1//EN" "http://www.w3.org/Graphics/SVG/1.1/DTD/svg11.dtd">
<svg xmlns="http://www.w3.org/2000/svg" version="1.1" width="95px" height="132px" style="shape-rendering:geometricPrecision; text-rendering:geometricPrecision; image-rendering:optimizeQuality; fill-rule:evenodd; clip-rule:evenodd" xmlns:xlink="http://www.w3.org/1999/xlink">
<g><path style="opacity:0.885" fill="#fefffe" d="M 53.5,22.5 C 71.0921,19.3086 82.9255,25.9753 89,42.5C 97.1039,69.0167 89.6039,89.5167 66.5,104C 45.733,110.914 27.233,107.08 11,92.5C 5.4065,77.8653 6.73984,63.8653 15,50.5C 24.4464,36.3738 37.2797,27.0405 53.5,22.5 Z M 57.5,32.5 C 69.8287,32.3179 77.3287,38.3179 80,50.5C 84.1512,72.0348 76.3179,87.2014 56.5,96C 52.2388,97.3626 47.9054,97.6959 43.5,97C 16.6925,92.2247 10.5258,78.3913 25,55.5C 33.2567,44.0592 44.09,36.3926 57.5,32.5 Z"/></g>
<g><path style="opacity:0.836" fill="#ececec" d="M 39.5,46.5 C 45.9137,46.3448 51.747,48.0115 57,51.5C 57.8201,53.728 57.4868,55.728 56,57.5C 52.412,54.8591 48.412,53.1925 44,52.5C 43.5014,56.1516 43.3347,59.8183 43.5,63.5C 47.6746,63.188 51.6746,63.8547 55.5,65.5C 56.2309,67.4012 56.2309,69.4012 55.5,71.5C 51.5568,70.5145 47.5568,69.8478 43.5,69.5C 43.1044,72.4822 43.7711,75.1489 45.5,77.5C 50.0325,78.1398 54.5325,78.8065 59,79.5C 59.1805,81.4884 59.0138,83.4884 58.5,85.5C 53.5318,84.8357 48.5318,84.3357 43.5,84C 41.508,83.4257 40.008,82.259 39,80.5C 36.9324,69.0241 37.0991,57.6908 39.5,46.5 Z"/></g>
</svg>
