<?xml version="1.0" encoding="UTF-8"?>
<!DOCTYPE svg PUBLIC "-//W3C//DTD SVG 1.1//EN" "http://www.w3.org/Graphics/SVG/1.1/DTD/svg11.dtd">
<svg xmlns="http://www.w3.org/2000/svg" version="1.1" width="95px" height="132px" style="shape-rendering:geometricPrecision; text-rendering:geometricPrecision; image-rendering:optimizeQuality; fill-rule:evenodd; clip-rule:evenodd" xmlns:xlink="http://www.w3.org/1999/xlink">
<g><path style="opacity:0.885" fill="#fefffe" d="M 53.5,22.5 C 71.0921,19.3086 82.9255,25.9753 89,42.5C 97.1039,69.0167 89.6039,89.5167 66.5,104C 45.733,110.914 27.233,107.08 11,92.5C 5.4065,77.8653 6.73984,63.8653 15,50.5C 24.4464,36.3738 37.2797,27.0405 53.5,22.5 Z M 57.5,32.5 C 69.8287,32.3179 77.3287,38.3179 80,50.5C 84.1512,72.0348 76.3179,87.2014 56.5,96C 52.2388,97.3626 47.9054,97.6959 43.5,97C 16.6925,92.2247 10.5258,78.3913 25,55.5C 33.2567,44.0592 44.09,36.3926 57.5,32.5 Z"/></g>
<g><path style="opacity:0.823" fill="#f0f0f0" d="M 38.5,46.5 C 45.0357,45.845 51.0357,47.345 56.5,51C 57.1383,52.7067 57.1383,54.54 56.5,56.5C 52.4684,54.3797 48.1351,53.0464 43.5,52.5C 43.8333,56.5 44.1667,60.5 44.5,64.5C 48.9606,65.0322 53.2939,66.0322 57.5,67.5C 58.1575,73.6986 56.1575,74.8652 51.5,71C 49.8659,70.5065 48.1992,70.3398 46.5,70.5C 46.2338,74.5705 46.5672,78.5705 47.5,82.5C 45.9775,84.2825 43.9775,84.9492 41.5,84.5C 40.7421,72.7701 39.4088,61.1034 37.5,49.5C 37.685,48.4163 38.0183,47.4163 38.5,46.5 Z"/></g>
</svg>
