<?xml version="1.0" encoding="UTF-8"?>
<!DOCTYPE svg PUBLIC "-//W3C//DTD SVG 1.1//EN" "http://www.w3.org/Graphics/SVG/1.1/DTD/svg11.dtd">
<svg xmlns="http://www.w3.org/2000/svg" version="1.1" width="95px" height="132px" style="shape-rendering:geometricPrecision; text-rendering:geometricPrecision; image-rendering:optimizeQuality; fill-rule:evenodd; clip-rule:evenodd" xmlns:xlink="http://www.w3.org/1999/xlink">
<g><path style="opacity:0.91" fill="#fefffe" d="M 36.5,17.5 C 47.0212,15.0785 55.5212,18.0785 62,26.5C 64.838,30.1718 67.1713,34.1718 69,38.5C 71.685,45.8936 74.3516,53.2269 77,60.5C 81.3517,77.8346 78.685,93.8346 69,108.5C 57.7487,119.255 44.9154,121.421 30.5,115C 14.3716,101.956 8.53825,85.1222 13,64.5C 15.2076,52.2102 19.2076,40.5435 25,29.5C 28.3635,24.9715 32.1969,20.9715 36.5,17.5 Z M 45.5,30.5 C 50.456,30.6188 53.956,32.9521 56,37.5C 62.8329,51.4956 67.3329,66.1622 69.5,81.5C 66.849,90.3053 62.5157,98.1386 56.5,105C 49.5316,109.565 42.5316,109.565 35.5,105C 24.8136,94.4477 20.147,81.6144 21.5,66.5C 27.5092,66.6662 33.5092,66.4995 39.5,66C 41.2556,65.7978 42.9223,65.2978 44.5,64.5C 45.4782,53.2179 45.8116,41.8846 45.5,30.5 Z"/></g>
</svg>
