<?xml version="1.0" encoding="UTF-8"?>
<!DOCTYPE svg PUBLIC "-//W3C//DTD SVG 1.1//EN" "http://www.w3.org/Graphics/SVG/1.1/DTD/svg11.dtd">
<svg xmlns="http://www.w3.org/2000/svg" version="1.1" width="95px" height="132px" style="shape-rendering:geometricPrecision; text-rendering:geometricPrecision; image-rendering:optimizeQuality; fill-rule:evenodd; clip-rule:evenodd" xmlns:xlink="http://www.w3.org/1999/xlink">
<g><path style="opacity:0.885" fill="#fefffe" d="M 53.5,22.5 C 71.0921,19.3086 82.9255,25.9753 89,42.5C 97.1039,69.0167 89.6039,89.5167 66.5,104C 45.733,110.914 27.233,107.08 11,92.5C 5.4065,77.8653 6.73984,63.8653 15,50.5C 24.4464,36.3738 37.2797,27.0405 53.5,22.5 Z M 57.5,32.5 C 69.8287,32.3179 77.3287,38.3179 80,50.5C 84.1512,72.0348 76.3179,87.2014 56.5,96C 52.2388,97.3626 47.9054,97.6959 43.5,97C 16.6925,92.2247 10.5258,78.3913 25,55.5C 33.2567,44.0592 44.09,36.3926 57.5,32.5 Z M 42.5,54.5 C 47.5976,53.4295 50.7643,55.4295 52,60.5C 52.8997,65.2195 53.5664,69.8861 54,74.5C 52.809,72.1531 50.9757,71.3198 48.5,72C 47.2532,73.4579 47.2532,74.9579 48.5,76.5C 47.3493,77.731 46.1827,77.731 45,76.5C 44.1376,74.913 43.4709,73.2464 43,71.5C 42.5006,65.8431 42.3339,60.1764 42.5,54.5 Z"/></g>
<g><path style="opacity:0.822" fill="#f7f7f7" d="M 40.5,48.5 C 47.7398,47.3685 52.9064,50.0352 56,56.5C 58.9012,64.8012 59.4012,73.1345 57.5,81.5C 60.623,84.9201 59.9563,87.2534 55.5,88.5C 54.376,87.086 53.376,85.586 52.5,84C 48.7125,83.8404 45.0458,83.1737 41.5,82C 40.5399,80.5806 39.7065,79.0806 39,77.5C 37.4238,68.9105 37.0905,60.2438 38,51.5C 38.6979,50.3094 39.5313,49.3094 40.5,48.5 Z M 42.5,54.5 C 42.3339,60.1764 42.5006,65.8431 43,71.5C 43.4709,73.2464 44.1376,74.913 45,76.5C 46.1827,77.731 47.3493,77.731 48.5,76.5C 47.2532,74.9579 47.2532,73.4579 48.5,72C 50.9757,71.3198 52.809,72.1531 54,74.5C 53.5664,69.8861 52.8997,65.2195 52,60.5C 50.7643,55.4295 47.5976,53.4295 42.5,54.5 Z"/></g>
</svg>
