<?xml version="1.0" encoding="UTF-8"?>
<!DOCTYPE svg PUBLIC "-//W3C//DTD SVG 1.1//EN" "http://www.w3.org/Graphics/SVG/1.1/DTD/svg11.dtd">
<svg xmlns="http://www.w3.org/2000/svg" version="1.1" width="95px" height="132px" style="shape-rendering:geometricPrecision; text-rendering:geometricPrecision; image-rendering:optimizeQuality; fill-rule:evenodd; clip-rule:evenodd" xmlns:xlink="http://www.w3.org/1999/xlink">
<g><path style="opacity:0.91" fill="#fefffe" d="M 42.5,17.5 C 47.5111,17.3341 52.5111,17.5007 57.5,18C 66.0137,24.1912 71.847,32.3579 75,42.5C 81.8995,59.7798 83.2328,77.4464 79,95.5C 74.9223,103.905 69.089,110.738 61.5,116C 47.5964,121.319 35.4297,118.819 25,108.5C 21.7453,102.992 18.7453,97.325 16,91.5C 15.004,79.4006 15.6707,67.4006 18,55.5C 21.6586,47.201 25.3253,38.8676 29,30.5C 32.7356,25.2624 37.2356,20.929 42.5,17.5 Z M 45.5,30.5 C 46.5,30.5 47.5,30.5 48.5,30.5C 48.1884,41.8846 48.5218,53.2179 49.5,64.5C 51.0777,65.2978 52.7444,65.7978 54.5,66C 60.4908,66.4995 66.4908,66.6662 72.5,66.5C 73.853,81.6144 69.1864,94.4477 58.5,105C 48.7553,110.57 40.2553,109.07 33,100.5C 29.6122,94.3929 26.7788,88.0596 24.5,81.5C 26.7605,64.885 31.9272,49.2183 40,34.5C 41.4998,32.5313 43.3331,31.198 45.5,30.5 Z"/></g>
</svg>
